<svg width="156" height="233" viewBox="0 0 156 233" fill="none" xmlns="http://www.w3.org/2000/svg">
<path d="M78 0C34.9892 0 0 35.9285 0 80.0939C0 97.1822 4.00193 115.827 11.8994 135.523C25.5813 169.643 51.4219 206.624 75.4916 231.936C76.8743 233.355 79.127 233.354 80.5084 231.936C104.547 206.663 130.412 169.66 144.101 135.523C151.998 115.827 156 97.1822 156 80.0939C156 35.9285 121.011 0 78 0ZM78 134.703C48.6747 134.703 24.8182 110.207 24.8182 80.0939C24.8182 49.9813 48.6747 25.4844 78 25.4844C107.325 25.4844 131.182 49.9813 131.182 80.0939C131.182 110.207 107.325 134.703 78 134.703Z" fill="#2C2F38"/>
<path d="M127.857 69.5536L124.857 76.7858C123.5 80.0715 122.125 83.375 120.768 86.6786L117.071 95.6072C116.828 96.2129 116.273 96.6374 115.625 96.7143C112.244 97.0018 108.861 96.1874 105.982 94.3929C102.839 92.3407 99.9399 89.9384 97.3391 87.2322C94.7485 84.5222 91.8544 82.1195 88.7141 80.0715C86.6991 78.8353 84.4378 78.0551 82.0891 77.7858L80.0713 72.9108L82.1249 67.9822C83.482 64.6786 84.857 61.375 86.2141 58.0893C87.5713 54.8036 88.9641 51.4822 90.3213 48.1786C94.0351 47.5923 97.8355 48.3727 101.018 50.375C104.155 52.4276 107.048 54.8299 109.643 57.5358C112.243 60.242 115.143 62.6442 118.286 64.6965C120.701 66.1842 123.468 67.0038 126.303 67.0715C126.886 67.1008 127.418 67.413 127.727 67.9075C128.037 68.4021 128.085 69.0167 127.857 69.5536Z" fill="#BDC3C7"/>
<path d="M96.9107 60.2679C95.5536 63.5715 94.1845 66.875 92.8036 70.1786C89.628 68.1763 85.8331 67.3957 82.125 67.9822C83.4821 64.6786 84.8571 61.375 86.2143 58.0893C89.9259 57.4977 93.7261 58.2717 96.9107 60.2679Z" fill="#2C2F38"/>
<path d="M109.643 57.5358C108.286 60.8394 106.911 64.1251 105.536 67.4287C102.945 64.7187 100.051 62.316 96.9106 60.268C98.2856 56.9823 99.6428 53.6787 101.018 50.3751C104.155 52.4277 107.048 54.83 109.643 57.5358Z" fill="#2C2F38"/>
<path d="M101.447 77.3216C100.072 80.6251 98.7144 83.9287 97.3394 87.2323C94.7487 84.5223 91.8546 82.1196 88.7144 80.0716C90.0715 76.768 91.4465 73.4644 92.8036 70.1787C95.95 72.219 98.8502 74.6158 101.447 77.3216Z" fill="#2C2F38"/>
<path d="M114.178 74.5893C112.803 77.8929 111.446 81.1786 110.071 84.4822C106.93 82.4351 104.036 80.0323 101.446 77.3214C102.803 74.0357 104.178 70.7322 105.536 67.4286C108.136 70.1348 111.036 72.5371 114.178 74.5893Z" fill="#2C2F38"/>
<path d="M127.857 69.5537L124.857 76.7858C121.149 77.3705 117.355 76.59 114.179 74.5894L118.286 64.6965C120.701 66.1842 123.468 67.0039 126.304 67.0715C126.886 67.1009 127.418 67.413 127.728 67.9076C128.037 68.4021 128.086 69.0167 127.857 69.5537Z" fill="#2C2F38"/>
<path d="M120.768 86.6786L117.071 95.6072C116.828 96.2129 116.273 96.6374 115.625 96.7143C112.244 97.0018 108.861 96.1874 105.982 94.3929L110.071 84.4822C113.253 86.4845 117.054 87.2649 120.768 86.6786Z" fill="#2C2F38"/>
<path d="M91.9108 47.9644C91.9125 48.4376 91.8152 48.906 91.6251 49.3394C90.4287 52.2501 89.2144 55.1786 88.0001 58.0894C86.643 61.3751 85.268 64.6786 83.9108 67.9822L81.8573 72.9108L78.0001 82.2501L64.3037 115.322C63.5492 117.146 61.4586 118.013 59.6341 117.259C57.8095 116.505 56.9421 114.414 57.6966 112.589L72.1251 77.7858V77.7679L74.143 72.9286V72.9108L78.0001 63.5894L85.0358 46.6072C85.684 45.0293 87.3575 44.1301 89.0311 44.4604C90.7046 44.7908 91.9109 46.2585 91.9108 47.9644Z" fill="#2C2F38"/>
<path d="M77.9821 77.875C74.2683 77.2888 70.4679 78.0691 67.2857 80.0715C64.1454 82.1195 61.2514 84.5222 58.6607 87.2322C56.0599 89.9384 53.1604 92.3407 50.0179 94.3929C47.1385 96.1874 43.7556 97.0018 40.375 96.7143C39.7267 96.6374 39.1721 96.2129 38.9286 95.6072L35.2321 86.6786C33.875 83.375 32.5 80.0715 31.1429 76.7858L28.1429 69.5536C27.9146 69.0167 27.963 68.4021 28.2725 67.9075C28.5821 67.413 29.1137 67.1008 29.6964 67.0715C32.5322 67.0038 35.2991 66.1842 37.7143 64.6965C40.8569 62.6442 43.7564 60.242 46.3571 57.5358C48.9517 54.8299 51.8453 52.4276 54.9821 50.375C58.1644 48.3727 61.9648 47.5923 65.6786 48.1786C67.0357 51.4822 68.4048 54.7858 69.7857 58.0893C71.1429 61.375 72.5179 64.6786 73.875 67.9822C75.2321 71.2858 76.6071 74.5715 77.9821 77.875Z" fill="#E6E7E8"/>
<path d="M73.8751 67.9822C70.167 67.3957 66.3721 68.1763 63.1965 70.1786C61.8215 66.875 60.4525 63.5715 59.0894 60.2679C62.2739 58.2717 66.0742 57.4977 69.7858 58.0893C71.1429 61.375 72.5179 64.6786 73.8751 67.9822Z" fill="#2C2F38"/>
<path d="M59.0896 60.268C55.9493 62.316 53.0553 64.7187 50.4646 67.4287C49.0896 64.1251 47.7146 60.8394 46.3574 57.5358C48.952 54.83 51.8455 52.4277 54.9824 50.3751C56.3574 53.6787 57.7146 56.9823 59.0896 60.268Z" fill="#2C2F38"/>
<path d="M67.2859 80.0716C64.1456 82.1196 61.2515 84.5223 58.6609 87.2323C57.2859 83.9287 55.9287 80.6251 54.5537 77.3216C57.1501 74.6158 60.0502 72.219 63.1966 70.1787C64.5537 73.4644 65.9287 76.768 67.2859 80.0716Z" fill="#2C2F38"/>
<path d="M54.5534 77.3214C51.9636 80.0323 49.0694 82.4351 45.9284 84.4822C44.5534 81.1786 43.1963 77.8929 41.8213 74.5893C44.9639 72.5371 47.8634 70.1348 50.4641 67.4286C51.8213 70.7322 53.1963 74.0357 54.5534 77.3214Z" fill="#2C2F38"/>
<path d="M41.8214 74.5894C38.6451 76.59 34.8509 77.3705 31.1429 76.7858L28.1429 69.5537C27.9146 69.0167 27.963 68.4021 28.2725 67.9076C28.5821 67.413 29.1137 67.1009 29.6964 67.0715C32.5322 67.0039 35.2991 66.1842 37.7143 64.6965L41.8214 74.5894Z" fill="#2C2F38"/>
<path d="M50.0181 94.3929C47.1387 96.1874 43.7559 97.0018 40.3753 96.7143C39.727 96.6374 39.1724 96.2129 38.9289 95.6072L35.2324 86.6786C38.9462 87.2649 42.7466 86.4845 45.9289 84.4822L50.0181 94.3929Z" fill="#2C2F38"/>
<path d="M96.3751 117.25C95.4991 117.617 94.5132 117.619 93.6353 117.257C92.7574 116.895 92.0597 116.199 91.6965 115.322L78.0001 82.2501L76.1965 77.8751L74.143 72.9286V72.9108L72.0894 67.9822L68.0001 58.0894L64.3751 49.3394C64.185 48.906 64.0877 48.4376 64.0894 47.9644C64.0893 46.2585 65.2956 44.7908 66.9691 44.4604C68.6427 44.1301 70.3162 45.0293 70.9644 46.6072L78.0001 63.5894L81.8572 72.9108L83.8751 77.7858L98.3037 112.589C99.0553 114.409 98.1926 116.494 96.3751 117.25Z" fill="#2C2F38"/>
</svg>
