<svg width="156" height="233" viewBox="0 0 156 233" fill="none" xmlns="http://www.w3.org/2000/svg">
<path d="M78 0C34.9892 0 0 35.9285 0 80.0939C0 97.1822 4.00193 115.827 11.8994 135.523C25.5813 169.643 51.4219 206.624 75.4916 231.936C76.8743 233.355 79.127 233.354 80.5084 231.936C104.547 206.663 130.412 169.66 144.101 135.523C151.998 115.827 156 97.1822 156 80.0939C156 35.9285 121.011 0 78 0ZM78 134.703C48.6747 134.703 24.8182 110.207 24.8182 80.0939C24.8182 49.9813 48.6747 25.4844 78 25.4844C107.325 25.4844 131.182 49.9813 131.182 80.0939C131.182 110.207 107.325 134.703 78 134.703Z" fill="#727C00"/>
<g clip-path="url(#clip0)">
<path d="M52.5 40V52L64.5 59.5L76.5 52V40L64.5 32.5L52.5 40Z" fill="#FFEB3A"/>
<path d="M64.5 59.5V71.5L52.5 79L40.5 71.5V59.5L52.5 52L64.5 59.5Z" fill="#FFDC00"/>
<path d="M112.5 59.5V71.5L100.5 79L88.5 71.5V59.5L100.5 52L112.5 59.5Z" fill="#FDD834"/>
<path d="M108 62.5V74.32L100.5 79L88.5 71.5V59.695L96 55L108 62.5Z" fill="#FFEB3A"/>
<path d="M76.5 79V91L64.5 98.5L52.5 91V79L64.5 71.5L76.5 79Z" fill="#FFEB3A"/>
<path d="M64.5 98.5V110.5L52.5 118L40.5 110.5V98.5L52.5 91L64.5 98.5Z" fill="#FFDC00"/>
<path d="M88.5 98.5V110.5L76.5 118L64.5 110.5V98.5L76.5 91L88.5 98.5Z" fill="#FF9801"/>
<path d="M88.5 59.5V71.5L76.5 79L64.5 71.5V59.5L76.5 52L88.5 59.5Z" fill="#FF9801"/>
<path d="M100.5 40V52L88.5 59.5L76.5 52V40L88.5 32.5L100.5 40Z" fill="#FEC108"/>
<path d="M96 43V54.82L88.5 59.5L76.5 52V40.195L84 35.5L96 43Z" fill="#FFDC00"/>
<path d="M109.425 95.5C109.236 92.8225 109.159 92.848 106.5 79H91.4999C89.0804 91.6 88.4999 93.5725 88.4999 97.75C88.4742 101.062 88.991 104.355 90.0299 107.5C94.1219 119.478 103.866 119.51 107.97 107.5C109.232 103.633 109.726 99.5566 109.425 95.5Z" fill="#F0C419"/>
<path d="M105.165 89.5H92.835C96.54 86.395 99 81.64 99 79C99.1302 80.6646 99.6436 82.2766 100.5 83.71C101.671 85.9199 103.255 87.8852 105.165 89.5Z" fill="#FFDC00"/>
<path d="M109.425 95.5H88.5752C88.658 94.262 88.8133 93.0299 89.0402 91.81C90.4219 91.2504 91.7035 90.4703 92.8352 89.5H105.165C106.301 90.4651 107.581 91.2447 108.96 91.81C109.187 93.0299 109.342 94.262 109.425 95.5V95.5Z" fill="#37474F"/>
<path d="M109.29 101.5H88.7099C88.4858 99.508 88.4406 97.5 88.5749 95.5H109.425C109.559 97.5 109.514 99.5081 109.29 101.5V101.5Z" fill="#FEC108"/>
<path d="M109.29 101.5C109.074 103.543 108.631 105.555 107.97 107.5H90.03C89.3689 105.555 88.9262 103.543 88.71 101.5H109.29Z" fill="#37474F"/>
<path d="M107.97 107.5C103.889 119.446 94.1613 119.554 90.0303 107.5H107.97Z" fill="#FEC108"/>
<path d="M88.5752 95.5H104.925C105.059 97.5 105.014 99.508 104.79 101.5H88.7102L88.5752 95.5Z" fill="#FFDC00"/>
<path d="M103.47 107.5C102 111.79 99.6003 114.955 96.7503 116.05C93.9003 114.955 91.5003 111.79 90.0303 107.5H103.47Z" fill="#FFDC00"/>
<path d="M106.5 74.5V77.545C105.069 77.56 99 77.5855 99 79C99 77.935 95.94 77.62 91.5 77.545V74.5C91.5 70.3579 94.8579 67 99 67C103.142 67 106.5 70.3579 106.5 74.5Z" fill="#37474F"/>
<path d="M70.5 85C70.5 89.1415 78.0435 92.5 85.5 92.5C92.9565 92.5 99 83.1415 99 79C99 77.5 92.9565 77.5 85.5 77.5C78.0435 77.5 70.5 80.8585 70.5 85Z" fill="#F5F5F5"/>
<path d="M127.5 85C127.5 90.25 115.972 93.334 110.835 92.335C106.573 91.6405 102.537 87.5815 100.5 83.71C99.6436 82.2767 99.1302 80.6647 99 79C99 78.043 101.564 77.8 102.54 77.725C105.009 77.491 109.786 77.5 112.5 77.5C119.955 77.5 127.5 80.86 127.5 85Z" fill="#CFD8DC"/>
<path d="M123 85C123 88.615 117.255 91.63 110.835 92.335C104.835 91.3585 99 83.3815 99 79C99 77.4085 106.626 77.515 108.42 77.515C115.74 77.62 123 80.935 123 85Z" fill="#F5F5F5"/>
<path d="M39.705 111.772C52.749 119.932 51.888 119.5 52.5 119.5C53.112 119.5 52.35 119.859 64.5 112.269C76.6755 119.878 75.9 119.5 76.5 119.5C77.1 119.5 76.5 119.766 86.31 113.632C87.0142 113.193 87.2287 112.265 86.7892 111.561C86.3498 110.857 85.4227 110.643 84.7185 111.082L76.5 116.232L66 109.669V99.331L71.4765 95.902C72.1807 95.4621 72.3949 94.5347 71.955 93.8305C71.5151 93.1263 70.5877 92.9121 69.8835 93.352L64.5 96.73L54 90.169V79.831L64.5 73.27C70.35 76.9345 69.9645 76.744 70.383 76.8295C71.0864 76.9606 71.7845 76.5766 72.0504 75.9124C72.3163 75.2481 72.076 74.4885 71.4765 74.098L66 70.669V60.331L76.5 53.7685L87 60.331V62.5C87 63.3284 87.6716 64 88.5 64C89.3284 64 90 63.3284 90 62.5V60.331L100.5 53.7685L111 60.331V71.5C111 72.3284 111.672 73 112.5 73C113.328 73 114 72.3284 114 71.5V59.5C114 58.9828 113.734 58.5021 113.295 58.228L102 51.169V40C102 39.4828 101.734 39.0021 101.295 38.728L89.295 31.228C88.8086 30.924 88.1914 30.924 87.705 31.228L76.5 38.2315L65.295 31.228C64.8086 30.924 64.1914 30.924 63.705 31.228L51.705 38.728C51.2664 39.0021 51 39.4828 51 40V51.169L39.705 58.228C39.2664 58.5021 39 58.9828 39 59.5V71.5C39 72.0172 39.2664 72.4979 39.705 72.772L51 79.831V90.169L39.705 97.228C39.2664 97.5021 39 97.9828 39 98.5V110.5C39 111.017 39.2664 111.498 39.705 111.772V111.772ZM78 40.831L88.5 34.2685L99 40.831V51.169L88.5 57.7315L78 51.169V40.831ZM54 40.831L64.5 34.2685L75 40.831V51.169L64.5 57.7315L54 51.169V40.831ZM42 70.669V60.331L52.5 53.7685L63 60.331V70.669L52.5 77.2315L42 70.669ZM42 99.331L52.5 92.7685L63 99.331V109.669L52.5 116.232L42 109.669V99.331Z" fill="black"/>
<path d="M108 76.0181V74.5001C108 71.8724 106.849 69.3766 104.85 67.6706L106.35 64.6706C106.712 63.9303 106.409 63.0368 105.671 62.6693C104.934 62.3019 104.038 62.598 103.665 63.3326L102.274 66.1241C100.176 65.2944 97.8395 65.2944 95.7405 66.1241L94.35 63.3311C94.1135 62.8471 93.6356 62.5272 93.0981 62.4928C92.5605 62.4584 92.0458 62.7149 91.7496 63.1648C91.4533 63.6147 91.4211 64.1888 91.665 64.6691L93.165 67.6691C91.1604 69.3726 90.0036 71.8694 90 74.5001V76.0136C88.635 76.0001 87.15 76.0001 85.5 76.0001C77.532 76.0001 69 79.6166 69 85.0001C69 91.4621 81.1875 94.8686 87.2505 93.8366C87.1935 94.3331 87.1575 94.8281 87.1095 95.3261C87.095 95.3834 87.0835 95.4415 87.075 95.5001C87.075 95.5391 87.0945 95.5721 87.0975 95.6111C87.0525 96.3236 87 97.0361 87 97.7501C87 108.25 91.5 116.622 97.5 117.834V119.5C97.5 120.329 98.1716 121 99 121C99.8284 121 100.5 120.329 100.5 119.5V117.834C106.5 116.622 111 108.244 111 97.7501C111 97.0361 110.948 96.3236 110.903 95.6111C110.903 95.5721 110.925 95.5391 110.925 95.5001C110.925 95.4371 110.895 95.3846 110.89 95.3246C110.842 94.8296 110.808 94.3376 110.751 93.8441C116.893 94.8656 129 91.4501 129 85.0001C129 79.6166 120.468 76.0001 112.5 76.0001C110.925 76.0001 109.409 76.0001 108 76.0181V76.0181ZM93 74.5001C93 71.1864 95.6863 68.5001 99 68.5001C102.314 68.5001 105 71.1864 105 74.5001V76.0781C102.97 76.0443 100.948 76.336 99.0105 76.9421C97.0709 76.3133 95.0383 76.0196 93 76.0736V74.5001ZM101.591 88.0001H96.405C97.4155 86.7909 98.2889 85.4733 99.009 84.0716C99.7119 85.4781 100.578 86.7967 101.591 88.0001ZM85.5 91.0001C78.2295 91.0001 72 87.7001 72 85.0001C72 82.3001 78.2295 79.0001 85.5 79.0001C88.5 79.0001 95.5965 78.9461 97.4595 79.5371C96.9465 83.1446 91.719 91.0001 85.5 91.0001V91.0001ZM106.862 106H105C104.172 106 103.5 106.672 103.5 107.5C103.5 108.328 104.172 109 105 109H105.75C102.1 116.995 95.901 116.992 92.25 109H99C99.8284 109 100.5 108.328 100.5 107.5C100.5 106.672 99.8284 106 99 106H91.1385C90.8529 105.014 90.6226 104.012 90.4485 103H107.55C107.376 104.012 107.147 105.014 106.862 106ZM107.912 100H90.09C89.9916 99.0031 89.973 98 90.0345 97.0001H91.5C92.3284 97.0001 93 96.3285 93 95.5001C93 94.6716 92.3284 94.0001 91.5 94.0001H90.252C90.3 93.6026 90.3525 93.2051 90.4155 92.8106C91.447 92.3146 92.4213 91.7075 93.321 91.0001H104.654C105.562 91.7179 106.546 92.3341 107.589 92.8376C107.649 93.2231 107.702 93.6116 107.748 94.0001H97.5C96.6716 94.0001 96 94.6716 96 95.5001C96 96.3285 96.6716 97.0001 97.5 97.0001H107.966C108.031 97.9999 108.012 99.0034 107.91 100H107.912ZM126 85.0001C126 88.7306 114.847 92.4851 109.512 90.4151C105.055 88.3133 101.767 84.3333 100.545 79.5596C102.7 78.9101 109.2 79.0211 112.5 79.0001C119.771 79.0001 126 82.3001 126 85.0001V85.0001Z" fill="black"/>
</g>
<defs>
<clipPath id="clip0">
<rect width="90" height="90" fill="white" transform="translate(39 31)"/>
</clipPath>
</defs>
</svg>
