<svg width="156" height="233" viewBox="0 0 156 233" fill="none" xmlns="http://www.w3.org/2000/svg">
<path d="M78 0C34.9892 0 0 35.9285 0 80.0939C0 97.1822 4.00193 115.827 11.8994 135.523C25.5813 169.643 51.4219 206.624 75.4916 231.936C76.8743 233.355 79.127 233.354 80.5084 231.936C104.547 206.663 130.412 169.66 144.101 135.523C151.998 115.827 156 97.1822 156 80.0939C156 35.9285 121.011 0 78 0ZM78 134.703C48.6747 134.703 24.8182 110.207 24.8182 80.0939C24.8182 49.9813 48.6747 25.4844 78 25.4844C107.325 25.4844 131.182 49.9813 131.182 80.0939C131.182 110.207 107.325 134.703 78 134.703Z" fill="#197C00"/>
<path d="M64.7862 61.1855C64.8714 73.8612 69.9513 85.1961 77.9226 92.8758C85.79 85.0898 90.7174 73.6876 90.6323 61.012C90.5486 48.5418 85.6305 37.369 77.8811 29.6977C77.6693 29.488 77.3247 29.4905 77.1158 29.7029C69.4703 37.4776 64.7024 48.7153 64.7862 61.1855V61.1855Z" fill="#8BC727"/>
<path d="M73.2497 61.1856C73.1808 50.9359 76.3913 41.521 81.7815 34.1754C80.5807 32.5783 79.2776 31.0804 77.881 29.698C77.6693 29.4883 77.3247 29.4907 77.1158 29.7031C69.4701 37.4778 64.7024 48.7153 64.7862 61.1858C64.8714 73.8614 69.9513 85.1964 77.9226 92.8761C79.4283 91.386 80.8253 89.7624 82.101 88.0237C76.6376 80.7588 73.3183 71.4089 73.2497 61.1856V61.1856Z" fill="#81B823"/>
<path d="M49.2246 116.274C55.6628 122.626 63.9445 125.782 71.8409 125.635C71.882 117.737 68.6153 109.499 62.1772 103.146C55.8435 96.897 47.7252 93.7415 39.945 93.781C39.7324 93.782 39.5597 93.9572 39.5615 94.1698C39.6265 101.95 42.8907 110.025 49.2246 116.274V116.274Z" fill="#8BC727"/>
<path d="M53.4928 112.004C48.287 106.868 45.1566 100.498 44.17 94.0722C42.7584 93.8724 41.3452 93.7741 39.943 93.7811C39.7304 93.7821 39.5577 93.9573 39.5596 94.1699C39.6246 101.95 42.889 110.025 49.2227 116.274C55.6608 122.626 63.9425 125.782 71.8389 125.635C71.8467 124.124 71.7324 122.6 71.4989 121.079C65.0774 120.17 58.6855 117.127 53.4928 112.004V112.004Z" fill="#81B823"/>
<path d="M43.702 84.0613C49.805 90.0829 57.6556 93.0743 65.1408 92.9349C65.1797 85.4484 62.0832 77.6388 55.9802 71.6172C49.9761 65.6932 42.2805 62.7018 34.9055 62.7392C34.704 62.7403 34.5404 62.9062 34.542 63.1077C34.6035 70.4825 37.6979 78.1373 43.702 84.0613V84.0613Z" fill="#8BC727"/>
<path d="M47.7497 80.0136C42.8149 75.1445 39.8475 69.1063 38.9123 63.0151C37.5741 62.8256 36.2347 62.7325 34.9055 62.7392C34.704 62.7403 34.5404 62.9062 34.542 63.1077C34.6037 70.4825 37.6981 78.1374 43.702 84.0613C49.805 90.0829 57.6556 93.0743 65.1408 92.9349C65.1482 91.5022 65.0399 90.0575 64.8185 88.6158C58.731 87.7542 52.672 84.8701 47.7497 80.0136V80.0136Z" fill="#81B823"/>
<path d="M95.2818 82.686C87.0385 91.0407 82.9435 101.788 83.1343 112.035C93.3829 112.088 104.074 107.849 112.317 99.4943C120.427 91.2751 124.521 80.7403 124.47 70.6442C124.469 70.3683 124.242 70.1442 123.966 70.1465C113.87 70.231 103.391 74.4668 95.2818 82.686V82.686Z" fill="#8BC727"/>
<path d="M100.823 88.2271C107.488 81.4715 115.754 77.4094 124.093 76.1292C124.352 74.2974 124.48 72.4635 124.47 70.644C124.469 70.3681 124.242 70.144 123.966 70.1463C113.87 70.2308 103.391 74.4666 95.2818 82.6858C87.0385 91.0405 82.9435 101.787 83.1343 112.034C85.0957 112.045 87.0733 111.896 89.0469 111.593C90.2264 103.26 94.1744 94.9654 100.823 88.2271V88.2271Z" fill="#81B823"/>
<path d="M125.404 69.1934C125.014 68.8092 124.497 68.5935 123.953 68.6048C113.095 68.6955 102.245 73.4334 94.1839 81.6032C86.2096 89.6853 81.652 100.395 81.5877 111.121L79.2517 113.457V93.7246C86.6932 86.2369 91.2335 76.0212 92.0435 64.9134C92.1054 64.0641 91.467 63.3254 90.6175 63.2635C89.7717 63.2016 89.0295 63.84 88.9676 64.6893C88.2947 73.92 84.8747 82.4789 79.2517 89.1602V50.8315C79.2517 49.98 78.5613 49.2896 77.7098 49.2896C76.8582 49.2896 76.1678 49.98 76.1678 50.8315V88.7291C69.9433 81.2903 66.3976 71.4681 66.3286 61.1751C66.2533 49.9822 70.3179 39.2361 77.5114 31.5195C84.1117 38.4034 88.1634 47.6674 88.9506 57.7259C89.017 58.5748 89.7627 59.2094 90.6083 59.1428C91.4574 59.0764 92.0918 58.3342 92.0254 57.4851C91.1521 46.3313 86.5145 36.0736 78.9664 28.6016C78.5706 28.2099 78.0387 28.001 77.4875 28C76.9298 28.0039 76.4076 28.2245 76.0171 28.6215C67.8173 36.9597 63.162 48.8325 63.2449 61.1957C63.3271 73.4435 68.0261 85.0874 76.168 93.3077V101.986L66.6789 92.4964C66.594 84.4694 63.1069 76.4825 57.0631 70.5193C51.0532 64.5896 43.034 61.1967 35.0406 61.1967C34.9931 61.1967 34.9454 61.1967 34.8977 61.1969C34.3874 61.1996 33.9086 61.4013 33.5498 61.765C33.1909 62.1289 32.9956 62.6101 33.0001 63.1202C33.0673 71.1608 36.5731 79.1935 42.619 85.1586C48.5563 91.0167 56.4126 94.3817 64.2981 94.4767L75.903 106.082C75.9849 106.163 76.0743 106.233 76.168 106.293V127.999L73.3777 125.208C73.314 118.472 70.9591 111.672 66.719 106.012C66.2085 105.331 65.242 105.192 64.5602 105.703C63.8787 106.213 63.7401 107.18 64.2508 107.861C67.3925 112.055 69.3937 116.928 70.0545 121.886L51.6085 103.44C51.0063 102.838 50.03 102.838 49.428 103.44C48.8258 104.042 48.8258 105.018 49.428 105.62L67.6583 123.851C61.3022 122.997 55.1455 119.952 50.305 115.176C44.8182 109.763 41.5178 102.593 41.1368 95.3422C47.7575 95.5949 54.2607 98.2298 59.5654 102.834C60.2085 103.392 61.1826 103.323 61.7405 102.68C62.2987 102.037 62.2299 101.063 61.5868 100.505C55.4406 95.1703 47.8126 92.2384 40.09 92.2384C40.0388 92.2384 39.9865 92.2386 39.9351 92.2388C39.4195 92.2412 38.936 92.4448 38.5731 92.8124C38.2102 93.1798 38.0126 93.6662 38.0168 94.1824C38.0875 102.642 41.7768 111.095 48.1389 117.372C54.3955 123.545 62.6764 127.087 70.9848 127.177L76.6191 132.812C76.8981 133.091 77.2838 133.264 77.7098 133.264C78.5613 133.264 79.2517 132.573 79.2517 131.722V117.818L83.4948 113.575C92.9956 113.534 102.442 109.998 110.134 103.593C110.788 103.049 110.877 102.076 110.332 101.422C109.787 100.767 108.815 100.679 108.16 101.224C101.903 106.434 94.4107 109.599 86.7417 110.329L111.612 85.4585C112.214 84.8563 112.214 83.88 111.612 83.278C111.009 82.6758 110.033 82.6758 109.431 83.278L84.8414 107.867C85.701 99.0571 89.7818 90.4557 96.3793 83.7692C103.607 76.4433 113.226 72.0865 122.918 71.7134C122.703 80.5582 119.245 89.2712 113.114 96.3568C112.557 97.0009 112.628 97.9746 113.272 98.5318C113.916 99.0889 114.889 99.0186 115.447 98.3745C122.31 90.4409 126.063 80.5901 126.012 70.6365C126.009 70.0902 125.793 69.5777 125.404 69.1934V69.1934ZM44.7847 82.9637C39.6206 77.8684 36.505 71.127 36.1226 64.3038C42.9502 64.5947 49.7329 67.6194 54.897 72.7148C59.5111 77.2673 62.4774 83.1055 63.3376 89.1555L46.0207 71.8386C45.4185 71.2364 44.4422 71.2364 43.8402 71.8386C43.238 72.4408 43.238 73.4171 43.8402 74.0191L60.9529 91.1319C55.0285 90.2821 49.3009 87.4197 44.7847 82.9637V82.9637Z" fill="black"/>
</svg>
