<svg id="Layer_1" enable-background="new 0 0 511.999 511.999" height="512" viewBox="0 0 511.999 511.999" width="512" xmlns="http://www.w3.org/2000/svg"><g><path d="m255.999 0c-97.05 0-176 78.95-176 176 0 37.55 9.03 78.52 26.85 121.8 30.872 74.976 89.179 156.239 143.49 211.86 3.12 3.12 8.203 3.117 11.32 0 54.241-55.534 112.602-136.846 143.49-211.86 17.82-43.28 26.85-84.25 26.85-121.8 0-97.05-78.949-176-176-176zm0 296c-66.17 0-120-53.83-120-120s53.83-120 120-120 120 53.83 120 120-53.83 120-120 120z"/><path d="m299.999 152h-32v-48c0-8.262-11.068-11.079-15.023-3.831l-48 88c-2.902 5.32.952 11.831 7.023 11.831h32v48c0 8.264 11.07 11.077 15.023 3.831l48-88c2.903-5.32-.952-11.831-7.023-11.831z"/></g></svg>