<?xml version="1.0" standalone="no"?>
<!DOCTYPE svg PUBLIC "-//W3C//DTD SVG 20010904//EN"
 "http://www.w3.org/TR/2001/REC-SVG-20010904/DTD/svg10.dtd">
<svg version="1.0" xmlns="http://www.w3.org/2000/svg"
 width="700.000000pt" height="700.000000pt" viewBox="0 0 700.000000 700.000000"
 preserveAspectRatio="xMidYMid meet">
<metadata>
Created by potrace 1.11, written by Peter Selinger 2001-2013
</metadata>
<g transform="translate(0.000000,700.000000) scale(0.100000,-0.100000)"
fill="#000000" stroke="none">
<path d="M1236 6989 c-311 -36 -601 -177 -825 -400 -194 -194 -321 -428 -383
-712 l-23 -102 0 -2270 c0 -2149 1 -2275 18 -2359 85 -416 323 -752 682 -959
161 -94 362 -158 555 -177 72 -8 794 -10 2315 -8 l2210 4 92 21 c324 77 565
217 773 450 166 186 284 432 331 693 12 62 14 463 14 2340 l0 2265 -23 102
c-124 563 -525 965 -1090 1095 l-97 22 -2240 2 c-1232 1 -2271 -2 -2309 -7z
m2565 -998 c448 -88 848 -367 1096 -766 299 -479 357 -1017 187 -1713 -162
-661 -570 -1443 -1143 -2187 -131 -170 -358 -437 -401 -472 -45 -37 -82 -9
-242 177 -624 728 -1134 1615 -1343 2335 -109 378 -156 775 -126 1060 91 848
716 1503 1516 1589 95 10 353 -3 456 -23z"/>
<path d="M3305 5435 c-465 -85 -844 -480 -930 -970 -20 -117 -20 -333 0 -450
76 -430 382 -796 778 -931 108 -37 219 -54 347 -54 304 0 558 107 781 329 242
242 360 531 360 881 -1 139 -8 200 -37 317 -112 449 -477 800 -914 879 -94 17
-292 16 -385 -1z"/>
</g>
</svg>
