<?xml version="1.0" standalone="no"?>
<!DOCTYPE svg PUBLIC "-//W3C//DTD SVG 20010904//EN"
 "http://www.w3.org/TR/2001/REC-SVG-20010904/DTD/svg10.dtd">
<svg version="1.0" xmlns="http://www.w3.org/2000/svg"
 width="700.000000pt" height="700.000000pt" viewBox="0 0 700.000000 700.000000"
 preserveAspectRatio="xMidYMid meet">
<metadata>
Created by potrace 1.11, written by Peter Selinger 2001-2013
</metadata>
<g transform="translate(0.000000,700.000000) scale(0.100000,-0.100000)"
fill="#000000" stroke="none">
<path d="M0 3500 l0 -3500 3500 0 3500 0 0 3500 0 3500 -3500 0 -3500 0 0
-3500z m4089 2469 c76 -17 154 -62 217 -124 220 -217 183 -566 -78 -735 -80
-53 -163 -73 -276 -69 l-92 4 23 -22 c12 -11 190 -170 394 -351 l373 -330 202
-4 c195 -3 205 -4 260 -30 79 -37 142 -98 181 -177 29 -60 32 -74 32 -156 -1
-78 -5 -98 -30 -149 -36 -76 -100 -140 -173 -174 -52 -25 -70 -27 -198 -30
l-141 -3 -30 30 -30 30 4 -47 c10 -109 35 -264 60 -368 l26 -111 158 5 c181 6
266 -5 409 -50 295 -94 545 -309 685 -587 56 -112 20 -197 -81 -194 -46 1 -65
20 -115 112 -140 260 -373 438 -651 495 -83 17 -303 22 -327 7 -11 -7 10 -94
113 -457 69 -247 126 -463 126 -479 0 -17 -7 -41 -16 -54 -45 -64 -145 -57
-178 13 -7 17 -69 227 -136 466 -67 239 -126 439 -130 444 -5 5 -42 -10 -85
-33 -247 -133 -423 -365 -478 -631 -32 -153 -31 -226 5 -420 28 -153 136 -339
271 -466 184 -173 395 -256 652 -255 367 0 679 201 854 548 50 99 127 121 185
52 34 -40 33 -79 -5 -159 -170 -359 -532 -611 -935 -650 -139 -13 -1418 -13
-1467 1 -41 11 -77 56 -77 97 0 31 26 79 49 92 13 6 147 10 365 10 190 0 346
4 346 8 0 4 -23 25 -50 46 -156 119 -304 335 -370 539 l-22 67 -359 0 c-391 0
-410 2 -445 55 l-17 26 -18 -68 c-122 -483 -523 -825 -1024 -874 -67 -6 -320
-9 -645 -7 -589 3 -565 1 -596 66 -20 43 -11 85 28 117 29 25 30 25 235 25
112 0 203 4 201 8 -1 5 -36 37 -76 71 -350 300 -487 801 -338 1237 102 301
319 542 612 681 153 72 258 95 465 100 l176 5 22 97 c13 53 25 103 27 112 4
15 -9 17 -108 21 -101 3 -120 7 -178 34 -86 41 -153 108 -193 192 -30 63 -32
75 -35 198 l-4 132 30 33 30 34 124 3 124 4 13 61 c28 135 27 135 530 639 297
297 487 479 523 502 31 20 92 48 135 63 122 42 277 37 408 -13 11 -5 9 6 -10
47 -116 255 34 570 306 643 63 17 176 20 238 5z m2062 -3888 c67 -67 18 -181
-78 -181 -58 0 -110 66 -99 124 17 84 117 116 177 57z m-2803 -1046 c87 -73 3
-215 -102 -171 -44 18 -66 52 -66 99 0 85 101 128 168 72z"/>
<path d="M3886 5755 c-97 -34 -168 -136 -168 -242 0 -152 110 -262 261 -263
108 0 191 55 239 159 75 164 -55 361 -238 360 -30 0 -72 -6 -94 -14z"/>
<path d="M3254 5100 c-103 -21 -123 -37 -531 -444 -216 -214 -391 -391 -390
-392 3 -3 513 -145 546 -152 20 -4 65 37 300 272 314 314 309 311 393 257 44
-28 136 -94 668 -481 119 -86 228 -165 243 -175 l27 -17 0 108 0 109 -483 429
c-265 235 -500 437 -522 449 -78 40 -167 53 -251 37z"/>
<path d="M3293 4201 l-212 -217 192 -192 192 -192 529 0 528 0 -7 53 c-4 28
-10 55 -14 58 -25 24 -981 709 -987 708 -5 0 -104 -98 -221 -218z"/>
<path d="M4720 3938 c0 -161 2 -189 13 -168 22 44 70 60 183 60 88 0 105 3
134 23 92 62 90 181 -4 251 -24 19 -44 21 -177 24 l-149 3 0 -193z"/>
<path d="M2164 4034 c-15 -105 19 -222 92 -311 38 -46 49 -53 504 -316 210
-121 289 -172 301 -193 9 -16 58 -215 110 -441 l93 -413 156 0 156 0 -67 417
c-74 455 -90 515 -163 624 -25 35 -143 161 -263 280 l-218 216 -332 92 c-183
50 -339 91 -347 91 -10 0 -17 -15 -22 -46z"/>
<path d="M1850 3775 c0 -94 86 -175 186 -175 46 0 46 0 30 23 -9 12 -35 59
-57 105 l-40 82 -59 0 -60 0 0 -35z"/>
<path d="M3600 3385 c0 -2 11 -37 24 -77 14 -40 39 -165 57 -278 18 -113 35
-208 38 -212 5 -6 517 447 626 553 19 19 14 19 -363 19 -210 0 -382 -2 -382
-5z"/>
<path d="M2356 3303 c-9 -43 -23 -104 -31 -136 l-13 -58 26 -11 c310 -130 509
-307 642 -572 28 -55 50 -97 50 -92 0 10 -149 659 -152 661 -12 10 -493 285
-498 285 -4 0 -15 -35 -24 -77z"/>
<path d="M4175 2934 c-209 -190 -388 -353 -398 -363 -18 -18 -18 -22 1 -140
11 -67 21 -123 23 -124 47 -32 91 -58 93 -55 2 2 15 44 30 93 96 315 332 584
626 715 30 13 57 25 59 27 5 3 -42 193 -48 193 -4 -1 -177 -156 -386 -346z"/>
<path d="M1761 2935 c-301 -66 -535 -251 -665 -526 -52 -110 -71 -179 -86
-306 -19 -166 10 -331 85 -490 52 -111 88 -164 167 -249 254 -271 646 -367
998 -246 317 110 567 405 619 731 l8 50 -486 3 c-534 3 -516 1 -546 65 -16 34
-2 102 189 924 l14 59 -116 -1 c-65 0 -146 -7 -181 -14z"/>
<path d="M2260 2894 c0 -8 -169 -744 -175 -761 -3 -10 81 -13 399 -13 l404 0
-13 68 c-55 287 -245 536 -510 667 -90 45 -105 50 -105 39z"/>
<path d="M3300 2040 l0 -110 286 0 285 0 -7 23 c-16 52 -87 128 -151 161 -45
23 -148 36 -290 36 l-123 0 0 -110z"/>
</g>
</svg>
