<svg width="352" height="512" viewBox="0 0 352 512" fill="none" xmlns="http://www.w3.org/2000/svg">
<path d="M175.999 0C78.949 0 -0.000976562 78.95 -0.000976562 176C-0.000976562 213.55 9.02902 254.52 26.849 297.8C57.721 372.776 116.028 454.039 170.339 509.66C173.459 512.78 178.542 512.777 181.659 509.66C235.9 454.126 294.261 372.814 325.149 297.8C342.969 254.52 351.999 213.55 351.999 176C351.999 78.95 273.05 0 175.999 0V0ZM175.999 296C109.829 296 55.999 242.17 55.999 176C55.999 109.83 109.829 56 175.999 56C242.169 56 295.999 109.83 295.999 176C295.999 242.17 242.169 296 175.999 296V296Z" fill="black"/>
</svg>
